<svg width="449" height="500" viewBox="0 0 449 500" fill="none" xmlns="http://www.w3.org/2000/svg">
<path d="M211.461 128.813C212.286 126.396 215.714 126.396 216.539 128.813L226.473 157.944C235.043 183.072 252.621 204.155 275.829 217.145L294.631 227.668C296.456 228.69 296.456 231.31 294.631 232.332L275.829 242.855C252.62 255.845 235.043 276.929 226.473 302.056L216.539 331.187C215.714 333.604 212.286 333.604 211.461 331.187L201.527 302.056C192.957 276.928 175.379 255.845 152.171 242.855L133.369 232.332C131.544 231.31 131.544 228.69 133.369 227.668L152.171 217.145C175.38 204.155 192.957 183.072 201.527 157.944L211.461 128.813Z" stroke="white" stroke-width="24"/>
</svg>
