<svg width="55" height="40" viewBox="0 0 55 40" fill="none" xmlns="http://www.w3.org/2000/svg">
<path fill-rule="evenodd" clip-rule="evenodd" d="M16.5 0H38.5C47.3366 0 54.5 7.16344 54.5 16C54.5 24.8366 47.3366 32 38.5 32H26.5C25.9477 32 25.5067 32.4515 25.4484 33.0007C24.8902 38.2587 19.9372 39.8276 16.9981 39.9862C16.7224 40.0011 16.5 39.7761 16.5 39.5C16.5 39.2239 16.7324 39.0093 16.9877 38.9039C18.1105 38.4406 18.5 36.4413 18.5 36V33C18.5 32.4477 18.0523 32 17.5 32H16.5C7.66344 32 0.5 24.8366 0.5 16C0.5 7.16344 7.66344 0 16.5 0ZM27.5 19.5C29.1569 19.5 30.5 18.1569 30.5 16.5C30.5 14.8431 29.1569 13.5 27.5 13.5C25.8431 13.5 24.5 14.8431 24.5 16.5C24.5 18.1569 25.8431 19.5 27.5 19.5ZM20 16.5C20 18.1569 18.6569 19.5 17 19.5C15.3431 19.5 14 18.1569 14 16.5C14 14.8431 15.3431 13.5 17 13.5C18.6569 13.5 20 14.8431 20 16.5ZM38 19.5C39.6569 19.5 41 18.1569 41 16.5C41 14.8431 39.6569 13.5 38 13.5C36.3431 13.5 35 14.8431 35 16.5C35 18.1569 36.3431 19.5 38 19.5Z" fill="black"/>
</svg>
