<svg width="36" height="36" viewBox="0 0 36 36" fill="none" xmlns="http://www.w3.org/2000/svg">
<path d="M15 11.5C15 15.6421 11.6421 19 7.5 19C5.54777 19 3.76976 18.2541 2.43539 17.0318C2.28446 16.8935 2.13919 16.7491 2 16.5991C0.758825 15.2609 0 13.4691 0 11.5C0 7.35786 3.35786 4 7.5 4C9.72125 4 11.717 4.96563 13.0903 6.5C14.2779 7.82689 15 9.57911 15 11.5Z" fill="white"/>
<path d="M36 11.5C36 13.9547 34.8207 16.134 32.9978 17.5022C31.7447 18.4427 30.1874 19 28.5 19C24.3579 19 21 15.6421 21 11.5C21 9.57911 21.7221 7.82689 22.9097 6.5C24.283 4.96563 26.2788 4 28.5 4C32.6421 4 36 7.35786 36 11.5Z" fill="white"/>
<path d="M15 11.5C15 15.6421 11.6421 19 7.5 19C5.54777 19 3.76976 18.2541 2.43539 17.0318L17.2929 31.7973C17.6838 32.1857 18.3152 32.1848 18.7049 31.7951L32.9978 17.5022C31.7447 18.4427 30.1874 19 28.5 19C24.3579 19 21 15.6421 21 11.5C21 9.57911 21.7221 7.82689 22.9097 6.5L18.7071 10.7026C18.3166 11.0932 17.6834 11.0932 17.2929 10.7026L13.0903 6.5C14.2779 7.82689 15 9.57911 15 11.5Z" fill="white"/>
</svg>
