<svg width="36" height="36" viewBox="0 0 36 36" fill="none" xmlns="http://www.w3.org/2000/svg">
<path d="M26 18.4286L9.81395 2H2V9.66667L19.3023 25L22.093 22.2619L12.2005 12.9524L8.69767 8.57143L13.3168 11.8571L23.2093 21.1667L26 18.4286Z" fill="white"/>
<path d="M20.9142 28.5858C21.6953 29.3668 21.6953 30.6332 20.9142 31.4142C20.1332 32.1953 18.8668 32.1953 18.0858 31.4142C17.3047 30.6332 17.3047 29.3668 18.0858 28.5858C18.8668 27.8047 20.1332 27.8047 20.9142 28.5858Z" fill="white"/>
<path d="M31.9142 17.5858C32.6953 18.3668 32.6953 19.6332 31.9142 20.4142C31.1332 21.1953 29.8668 21.1953 29.0858 20.4142C28.3047 19.6332 28.3047 18.3668 29.0858 17.5858C29.8668 16.8047 31.1332 16.8047 31.9142 17.5858Z" fill="white"/>
<path d="M20.9142 28.5858C21.6953 29.3668 21.6953 30.6332 20.9142 31.4142L31.9142 20.4142C31.1332 21.1953 29.8668 21.1953 29.0858 20.4142C28.3047 19.6332 28.3047 18.3668 29.0858 17.5858L18.0858 28.5858C18.8668 27.8047 20.1332 27.8047 20.9142 28.5858Z" fill="white"/>
<path d="M24.2605 26.796C23.4794 26.015 23.4794 24.7486 24.2605 23.9676L24.9676 23.2605C25.7486 22.4794 27.015 22.4794 27.796 23.2605L33.6568 29.1213C34.4379 29.9024 34.4379 31.1687 33.6568 31.9498L32.9497 32.6569C32.1687 33.4379 30.9024 33.4379 30.1213 32.6569L24.2605 26.796Z" fill="white"/>
<path d="M3.32841 17.5858C2.54736 18.3668 2.54736 19.6332 3.32841 20.4142C4.10946 21.1953 5.37579 21.1953 6.15684 20.4142C6.93789 19.6332 6.93789 18.3668 6.15684 17.5858C5.37579 16.8047 4.10946 16.8047 3.32841 17.5858Z" fill="white"/>
<path d="M10.9822 26.796C11.7632 26.015 11.7632 24.7486 10.9822 23.9676L10.2751 23.2605C9.49401 22.4794 8.22767 22.4794 7.44663 23.2605L6.81066 23.8965L1.58579 29.1213C0.804738 29.9024 0.804738 31.1687 1.58579 31.9498L2.29289 32.6569C3.07394 33.4379 4.34027 33.4379 5.12132 32.6569L10.3462 27.432L10.9822 26.796Z" fill="white"/>
<path d="M14.3284 31.4142C13.5474 30.6332 13.5474 29.3668 14.3284 28.5858C15.0454 27.8688 16.1715 27.81 16.9556 28.4095L16.9652 28.3942L6.15684 17.5858C6.93789 18.3668 6.93789 19.6332 6.15684 20.4142C5.37579 21.1953 4.10946 21.1953 3.32841 20.4142L6.81066 23.8965L7.44663 23.2605C8.22767 22.4794 9.49401 22.4794 10.2751 23.2605L10.9822 23.9676C11.7632 24.7486 11.7632 26.015 10.9822 26.796L10.3462 27.432L14.3284 31.4142Z" fill="white"/>
<path d="M14.3284 28.5858C13.5474 29.3668 13.5474 30.6332 14.3284 31.4142C15.0454 32.1313 16.1715 32.19 16.9556 31.5905C16.3482 30.6207 16.3482 29.3793 16.9556 28.4095C16.1715 27.81 15.0454 27.8688 14.3284 28.5858Z" fill="white"/>
<path d="M25.4287 2H33.2426V9.66667L27.5 14.5L20.5 7.5L25.4287 2Z" fill="white"/>
</svg>
